<svg xmlns="http://www.w3.org/2000/svg" viewBox="0 0 250.22 250.22">
  <rect width="250.22" height="250.22" rx="17.21" ry="17.21" fill="#003"/>
  <path d="M73.02 195.03c-4.79 0-8.68-3.91-8.68-8.74V63.92c0-4.83 3.89-8.74 8.68-8.74s8.68 3.91 8.68 8.74v122.37c0 4.83-3.89 8.74-8.68 8.74" fill="#fff"/>
  <path d="M73.02 195.03c-4.79 0-8.68-3.91-8.68-8.74 0-16.37 6.56-28.66 19.5-36.54 10.5-6.39 23.92-9.19 36.91-11.9 29.62-6.17 47.77-11.36 47.77-38.96 0-4.83 3.89-8.74 8.68-8.74s8.68 3.91 8.68 8.74c0 19.13-7.15 33.45-21.26 42.57-11.67 7.54-26.25 10.58-40.36 13.52-27.18 5.66-42.56 9.91-42.56 31.32 0 4.83-3.89 8.74-8.68 8.74Z" fill="#fff"/>
  <path d="M73.02 72.67c-19.15 0-34.73-15.68-34.73-34.96S53.87 2.74 73.02 2.74s34.73 15.68 34.73 34.96-15.58 34.96-34.73 34.96Zm0-52.45c-9.57 0-17.36 7.84-17.36 17.48s7.79 17.48 17.36 17.48 17.36-7.84 17.36-17.48-7.79-17.48-17.36-17.48M73.02 247.47c-19.15 0-34.73-15.68-34.73-34.96s15.58-34.96 34.73-34.96 34.73 15.68 34.73 34.96-15.58 34.96-34.73 34.96m0-52.44c-9.57 0-17.36 7.84-17.36 17.48s7.79 17.48 17.36 17.48 17.36-7.84 17.36-17.48-7.79-17.48-17.36-17.48M177.2 107.63c-19.15 0-34.73-15.68-34.73-34.96s15.58-34.96 34.73-34.96 34.73 15.68 34.73 34.96-15.58 34.96-34.73 34.96m0-52.45c-9.57 0-17.36 7.84-17.36 17.48s7.79 17.48 17.36 17.48 17.36-7.84 17.36-17.48-7.79-17.48-17.36-17.48" fill="#3cf"/>
</svg>
